<svg width="34" height="34" viewBox="0 0 34 34" fill="none" xmlns="http://www.w3.org/2000/svg">
<path d="M29.07 12.9772C30.0369 12.0302 30.6 10.7365 30.6 9.35C30.6 6.53796 28.3123 4.25 25.5 4.25C24.5708 4.25 23.6567 4.5054 22.8554 4.98877C22.5876 5.15067 22.5012 5.4987 22.6628 5.76685C22.8244 6.035 23.173 6.12046 23.4409 5.95943C24.0656 5.58257 24.7773 5.38336 25.5 5.38336C27.687 5.38336 29.4666 7.16278 29.4666 9.35C29.4666 10.6969 28.7921 11.9384 27.6599 12.6728C26.7091 13.2965 25.5038 13.4763 24.4032 13.1628C24.1055 13.077 23.7889 13.2508 23.7026 13.5518C23.6168 13.8528 23.7911 14.1663 24.0922 14.2524C24.5504 14.3835 25.0241 14.4499 25.5 14.4499C26.391 14.4499 27.2523 14.2069 28.017 13.7679C30.926 14.822 32.8666 17.5685 32.8666 20.6833V23.5166H27.6994C27.2981 19.7318 24.9169 16.4197 21.4436 14.847C22.5489 13.7217 23.2333 12.1816 23.2333 10.4834C23.2334 7.04623 20.4371 4.25 17 4.25C13.5629 4.25 10.7666 7.04623 10.7666 10.4834C10.7666 12.1821 11.4514 13.7227 12.5573 14.8481C11.3884 15.3792 10.3043 16.1221 9.38486 17.0363C7.62224 18.804 6.54965 21.0728 6.29505 23.5168H1.13336V20.6834C1.13336 18.7211 1.89982 16.8709 3.28937 15.4755C4.0543 14.7154 4.98558 14.1356 5.98832 13.7711C6.75312 14.2083 7.61182 14.45 8.5 14.45C8.97593 14.45 9.44961 14.3836 9.90781 14.2524C10.2088 14.1664 10.3831 13.8529 10.2974 13.5519C10.2111 13.2508 9.89453 13.0773 9.59683 13.1628C8.49668 13.4769 7.292 13.2973 6.33741 12.6714C5.20798 11.9384 4.53335 10.697 4.53335 9.35C4.53335 7.16278 6.31304 5.38336 8.5 5.38336C9.2227 5.38336 9.93437 5.58257 10.5591 5.95943C10.8281 6.12046 11.175 6.03414 11.3372 5.76685C11.4988 5.49877 11.4124 5.15067 11.1446 4.98877C10.3433 4.5054 9.42916 4.25 8.5 4.25C5.68769 4.25 3.4 6.53796 3.4 9.35C3.4 10.7354 3.96213 12.0281 4.92628 12.9743C4.02761 13.392 3.19759 13.9688 2.48804 14.6736C0.883734 16.285 0 18.4192 0 20.6834V24.0834C0 24.3963 0.253473 24.65 0.566644 24.65H6.23329V29.1834C6.23329 29.4963 6.48676 29.75 6.79993 29.75H27.1999C27.5132 29.75 27.7666 29.4963 27.7666 29.1834V24.65H33.4332C33.7465 24.65 33.9999 24.3963 33.9999 24.0834V20.6834C34 17.3328 32.0528 14.3523 29.07 12.9772ZM11.9 10.4834C11.9 7.67132 14.1877 5.38336 17 5.38336C19.8123 5.38336 22.1 7.67132 22.1 10.4834C22.1 13.2954 19.8123 15.5834 17 15.5834C14.1877 15.5834 11.9 13.2953 11.9 10.4834ZM26.6334 28.6166H7.36664V24.65C7.36664 22.0806 8.36825 19.661 10.1856 17.8381C11.143 16.8858 12.3036 16.1472 13.548 15.6694C14.5371 16.3299 15.7239 16.7166 17 16.7166C18.2782 16.7166 19.4671 16.3288 20.4571 15.6662C24.1611 17.0894 26.6334 20.6603 26.6334 24.65V28.6166Z" fill="#343935"/>
</svg>
