<svg width="36" height="36" viewBox="0 0 36 36" fill="none" xmlns="http://www.w3.org/2000/svg">
<g clip-path="url(#clip0_18_68)">
<mask id="mask0_18_68" style="mask-type:luminance" maskUnits="userSpaceOnUse" x="0" y="0" width="36" height="36">
<path d="M0 3.8147e-06H36V36H0V3.8147e-06Z" fill="white"/>
</mask>
<g mask="url(#mask0_18_68)">
<path d="M35.4727 18C35.4727 27.6499 27.6499 35.4727 18 35.4727C8.3501 35.4727 0.527344 27.6499 0.527344 18C0.527344 8.3501 8.3501 0.527347 18 0.527347C27.6499 0.527347 35.4727 8.3501 35.4727 18Z" stroke="#343935" stroke-miterlimit="10" stroke-linecap="round" stroke-linejoin="round"/>
<path d="M16.4218 26.0779C16.9762 27.8746 18.8821 28.8816 20.6788 28.3272C22.4756 27.7728 23.4826 25.8669 22.9282 24.0702C22.3738 22.2735 20.4679 21.2664 18.6712 21.8208C16.8745 22.3752 15.8674 24.2811 16.4218 26.0779Z" stroke="#343935" stroke-miterlimit="10" stroke-linecap="round" stroke-linejoin="round"/>
<path d="M16.0762 3.14126V15.597C16.0762 15.9599 16.3703 16.2539 16.733 16.2539H29.5142C30.1034 16.2539 30.3947 15.538 29.9726 15.1267L17.1915 2.67087C16.7753 2.26524 16.0762 2.56013 16.0762 3.14126Z" stroke="#343935" stroke-miterlimit="10" stroke-linecap="round" stroke-linejoin="round"/>
<path d="M20.1102 8.87038L18.2012 10.7793" stroke="#343935" stroke-miterlimit="10" stroke-linecap="round" stroke-linejoin="round"/>
<path d="M21.868 10.6262L19.959 12.5352" stroke="#343935" stroke-miterlimit="10" stroke-linecap="round" stroke-linejoin="round"/>
<path d="M23.6238 12.383L21.7148 14.292" stroke="#343935" stroke-miterlimit="10" stroke-linecap="round" stroke-linejoin="round"/>
<path d="M7.0324 24.4111C8.15635 24.6117 9.19768 23.7588 9.26567 22.619C9.3743 20.7961 9.91592 18.2802 10.8451 15.5928C11.7743 12.9053 12.9023 10.5922 13.9429 9.09145C14.5934 8.1532 14.3013 6.83913 13.2934 6.30272C13.2056 6.25603 13.1145 6.21623 13.0201 6.18354C10.8104 5.41952 7.6141 8.86378 5.88097 13.8764C4.14783 18.8891 4.53413 23.572 6.74377 24.336C6.83827 24.3686 6.93453 24.3936 7.0324 24.4111Z" stroke="#343935" stroke-miterlimit="10" stroke-linecap="round" stroke-linejoin="round"/>
<path d="M8.55724 14.8022C8.40832 15.2329 8.63677 15.7028 9.06743 15.8517L10.5838 16.376C10.6672 16.117 10.7542 15.8559 10.8451 15.5933C10.9359 15.3306 11.0287 15.0715 11.123 14.8164L9.60666 14.2921C9.17599 14.1432 8.70617 14.3716 8.55724 14.8022Z" stroke="#343935" stroke-miterlimit="10" stroke-linecap="round" stroke-linejoin="round"/>
<path d="M7.96741 18.6866C7.81849 19.1173 8.04686 19.5872 8.47752 19.736L9.60259 20.125C9.7037 19.6078 9.82584 19.066 9.96857 18.5056L9.01675 18.1764C8.58609 18.0276 8.11633 18.256 7.96741 18.6866Z" stroke="#343935" stroke-miterlimit="10" stroke-linecap="round" stroke-linejoin="round"/>
<path d="M12.6672 11.2611L11.5422 10.8721C11.1115 10.7232 10.6416 10.9516 10.4928 11.3823C10.3439 11.8129 10.5723 12.2828 11.003 12.4316L11.9547 12.7607C12.1886 12.2318 12.4272 11.7304 12.6672 11.2611Z" stroke="#343935" stroke-miterlimit="10" stroke-linecap="round" stroke-linejoin="round"/>
<path d="M13.8381 31.3896L13.8439 31.3879C15.0168 31.0259 16.2716 31.0645 17.431 31.4675C19.4871 32.1823 21.9049 31.9424 23.9965 30.3837C25.2145 29.4761 25.1764 29.0213 26.7856 27.3857C27.5733 26.5849 27.944 25.4634 27.7885 24.351C27.6628 23.4509 27.2077 22.6532 26.5413 22.0902C26.0119 21.6428 25.5346 21.1383 25.1007 20.5976C23.3742 18.4464 20.4445 17.4472 17.6527 18.3085L14.4453 19.2983C12.5373 19.887 11.4678 21.911 12.0565 23.8191C12.2624 24.4866 11.8883 25.1947 11.2207 25.4007C9.70115 25.8696 8.84932 27.4817 9.31823 29.0013C9.90682 30.9089 11.9305 31.9782 13.8381 31.3896Z" stroke="#343935" stroke-miterlimit="10" stroke-linecap="round" stroke-linejoin="round"/>
<path d="M30.5507 18.0005C30.5507 11.8483 26.101 6.71609 20.251 5.65226L29.9734 15.1271C30.3954 15.5384 30.1042 16.2545 29.515 16.2545H16.7339C16.371 16.2545 16.0769 15.9604 16.0769 15.5976V5.59692C15.1318 5.74289 14.2212 5.99482 13.3574 6.33984C14.313 6.89714 14.5793 8.1743 13.9428 9.09223C12.9022 10.5929 11.7743 12.9061 10.845 15.5935C9.91586 18.2809 9.37424 20.7969 9.26561 22.6198C9.20162 23.6928 8.27477 24.5115 7.22852 24.436C7.82238 25.4262 8.54877 26.3281 9.38317 27.1172C9.68994 26.3229 10.3436 25.6717 11.2204 25.4011C11.8879 25.1951 12.262 24.4871 12.0561 23.8195C11.4673 21.9115 12.5368 19.8874 14.4448 19.2987L17.6523 18.3091C20.4441 17.4476 23.3738 18.4468 25.1003 20.598C25.5342 21.1387 26.0114 21.6433 26.541 22.0907C27.2073 22.6537 27.6625 23.4513 27.7882 24.3514C27.8696 24.934 27.8054 25.5186 27.6139 26.0588C29.4456 23.877 30.5507 21.0655 30.5507 18.0005Z" stroke="#343935" stroke-miterlimit="10" stroke-linecap="round" stroke-linejoin="round"/>
</g>
</g>
<defs>
<clipPath id="clip0_18_68">
<rect width="36" height="36" fill="white"/>
</clipPath>
</defs>
</svg>
