<svg width="48" height="38" viewBox="0 0 48 38" fill="none" xmlns="http://www.w3.org/2000/svg">
<path d="M4.53424 34.1995C1.86758 31.2662 0.267578 28.0662 0.267578 22.7329C0.267578 13.3995 6.93425 5.13288 16.2676 0.866211L18.6676 4.33288C9.86758 9.13288 8.00091 15.2662 7.46758 19.2662C8.80091 18.4662 10.6676 18.1995 12.5342 18.4662C17.3342 18.9995 21.0676 22.7329 21.0676 27.7995C21.0676 30.1995 20.0009 32.5995 18.4009 34.4662C16.5342 36.3329 14.4009 37.1329 11.7342 37.1329C8.80091 37.1329 6.13424 35.7995 4.53424 34.1995ZM31.2009 34.1995C28.5342 31.2662 26.9342 28.0662 26.9342 22.7329C26.9342 13.3995 33.6009 5.13288 42.9342 0.866211L45.3342 4.33288C36.5342 9.13288 34.6676 15.2662 34.1342 19.2662C35.4676 18.4662 37.3342 18.1995 39.2009 18.4662C44.0009 18.9995 47.7342 22.7329 47.7342 27.7995C47.7342 30.1995 46.6676 32.5995 45.0676 34.4662C43.4676 36.3329 41.0676 37.1329 38.4009 37.1329C35.4676 37.1329 32.8009 35.7995 31.2009 34.1995Z" fill="#C5A56F"/>
</svg>
