<svg width="30" height="24" viewBox="0 0 30 24" fill="none" xmlns="http://www.w3.org/2000/svg">
<path d="M29.7244 7.76771C29.5497 7.95031 29.3129 8.05288 29.066 8.05288C28.819 8.05288 28.5822 7.95031 28.4075 7.76771C24.8478 4.04373 20.0205 1.95175 14.9872 1.95175C9.95394 1.95175 5.1267 4.04373 1.56694 7.76771C1.39031 7.93995 1.1567 8.03372 0.915312 8.02926C0.673926 8.0248 0.443616 7.92247 0.272903 7.74381C0.102191 7.56515 0.00440414 7.32413 0.000145163 7.07151C-0.00411382 6.81889 0.0854871 6.5744 0.250071 6.38955C4.15949 2.29838 9.4617 0 14.9903 0C20.519 0 25.8212 2.29838 29.7306 6.38955C29.9043 6.57325 30.0012 6.82157 30 7.07997C29.9988 7.33838 29.8997 7.58573 29.7244 7.76771Z" fill="#343935"/>
<path d="M25.856 10.4334C26.0206 10.6183 26.1102 10.8627 26.1059 11.1154C26.1017 11.368 26.0039 11.609 25.8332 11.7877C25.6625 11.9663 25.4322 12.0687 25.1908 12.0731C24.9494 12.0776 24.7158 11.9838 24.5391 11.8116C23.2854 10.497 21.7963 9.45408 20.157 8.7425C18.5177 8.03092 16.7603 7.66465 14.9856 7.66465C13.2109 7.66465 11.4536 8.03092 9.81427 8.7425C8.17495 9.45408 6.68582 10.497 5.43209 11.8116C5.2542 11.9718 5.02511 12.0558 4.79058 12.0469C4.55606 12.038 4.33338 11.9368 4.16704 11.7636C4.00071 11.5903 3.90297 11.3578 3.89336 11.1124C3.88375 10.867 3.96298 10.6268 4.11521 10.4399C5.54196 8.94451 7.23642 7.75816 9.10167 6.94872C10.9669 6.13929 12.9664 5.72266 14.9856 5.72266C17.0049 5.72266 19.0043 6.13929 20.8696 6.94872C22.7348 7.75816 24.4293 8.94451 25.856 10.4399V10.4334Z" fill="#343935"/>
<path d="M21.9983 14.4761C22.1629 14.661 22.2525 14.9055 22.2482 15.1581C22.244 15.4107 22.1462 15.6517 21.9755 15.8304C21.8048 16.009 21.5744 16.1114 21.3331 16.1158C21.0917 16.1203 20.8581 16.0265 20.6814 15.8543C19.1684 14.2803 17.1218 13.3968 14.9884 13.3968C12.8551 13.3968 10.8084 14.2803 9.29546 15.8543C9.11883 16.0265 8.88521 16.1203 8.64383 16.1158C8.40244 16.1114 8.17213 16.009 8.00142 15.8304C7.83071 15.6517 7.73292 15.4107 7.72866 15.1581C7.7244 14.9055 7.814 14.661 7.97859 14.4761C8.89886 13.511 9.99197 12.7454 11.1953 12.223C12.3987 11.7005 13.6887 11.4316 14.9915 11.4316C16.2944 11.4316 17.5844 11.7005 18.7878 12.223C19.9911 12.7454 21.0842 13.511 22.0045 14.4761H21.9983Z" fill="#343935"/>
<path d="M14.9845 17.1484C14.337 17.1484 13.7041 17.3494 13.1658 17.7258C12.6275 18.1022 12.2079 18.6373 11.9601 19.2633C11.7124 19.8893 11.6475 20.5781 11.7738 21.2427C11.9001 21.9072 12.2119 22.5177 12.6697 22.9968C13.1276 23.4759 13.7108 23.8022 14.3458 23.9344C14.9809 24.0666 15.6391 23.9987 16.2372 23.7394C16.8354 23.4801 17.3466 23.041 17.7063 22.4776C18.066 21.9143 18.258 21.2519 18.258 20.5743C18.258 19.6657 17.9131 18.7943 17.2992 18.1519C16.6853 17.5094 15.8527 17.1484 14.9845 17.1484ZM14.9845 22.05C14.7056 22.05 14.433 21.9634 14.2011 21.8013C13.9692 21.6391 13.7885 21.4087 13.6818 21.139C13.575 20.8694 13.5471 20.5727 13.6015 20.2864C13.6559 20.0002 13.7902 19.7372 13.9874 19.5309C14.1846 19.3245 14.4359 19.1839 14.7094 19.127C14.9829 19.0701 15.2664 19.0993 15.5241 19.211C15.7817 19.3227 16.002 19.5118 16.1569 19.7545C16.3118 19.9972 16.3945 20.2825 16.3945 20.5743C16.3945 20.9657 16.246 21.341 15.9815 21.6178C15.7171 21.8945 15.3585 22.05 14.9845 22.05Z" fill="#343935"/>
</svg>
